<?xml version="1.0" encoding="UTF-8"?>
<svg width="95px" height="95px" viewBox="0 0 95 95" version="1.1" xmlns="http://www.w3.org/2000/svg" xmlns:xlink="http://www.w3.org/1999/xlink">
    <!-- Generator: Sketch 46.2 (44496) - http://www.bohemiancoding.com/sketch -->
    <title>Group 6</title>
    <desc>Created with Sketch.</desc>
    <defs></defs>
    <g id="Page-1" stroke="none" stroke-width="1" fill="none" fill-rule="evenodd">
        <g id="2" transform="translate(-244.000000, -408.000000)" stroke="#000000">
            <g id="Group-6" transform="translate(244.000000, 408.000000)">
                <rect id="Rectangle-Copy-4" stroke-width="4" x="2" y="2" width="91" height="91" rx="8"></rect>
                <path d="M50.1464308,17.5744654 L66.1011181,35.3019453 L65.0376211,19.3472581 L50.1464308,17.5744654 Z M27.4319945,19.3544046 L27.0706467,35.6074606 L44.4059594,17.5485592 L27.4319945,19.3544046 Z M28.5106779,37.3311207 L64.9228296,37.3311207 L47.303888,17.7544693 L28.5106779,37.3311207 Z M25.1388432,22.0267701 L14.2305181,37.7067616 L24.7980418,37.3659602 L25.1388432,22.0267701 Z M68.4769014,37.3614936 L80.2280735,37.7072082 L67.4397574,21.8079068 L68.4769014,37.3614936 Z M14.3725559,39.9364872 L41.2878275,72.0950978 L25.2085221,39.5871992 L14.3725559,39.9364872 Z M68.1066205,39.5845193 L51.3783185,72.6846887 L80.2075272,39.9405071 L68.1066205,39.5845193 Z M27.6888239,39.5644196 L46.4476412,77.4898546 L65.6147056,39.5644196 L27.6888239,39.5644196 Z M46.4422813,80.9545945 L46.4239682,80.9545945 C46.0166145,80.9492346 45.6333804,80.7669974 45.3725311,80.4552289 L11.3245496,39.7743497 C10.9216625,39.2932971 10.890843,38.5974012 11.2490641,38.0819558 L25.34788,17.8147684 C25.5788031,17.4824535 25.9428308,17.2671635 26.3461646,17.2242842 L47.1810566,15.0075117 C47.2837883,14.9967918 47.3874134,14.9976852 47.4901451,15.0092983 L47.4937184,15.009745 L66.1091579,17.2256241 C66.474079,17.2698434 66.8005873,17.4507407 67.0301704,17.7348163 L83.3395055,38.0118302 C83.765619,38.5406754 83.7495392,39.2959771 83.3010928,39.8069558 L47.4896985,80.4815818 C47.2234892,80.7830772 46.8429351,80.9545945 46.4422813,80.9545945 L46.4422813,80.9545945 Z" id="Fill-1" fill="#000000"></path>
            </g>
        </g>
    </g>
</svg>